<svg id="Layer_1" data-name="Layer 1" xmlns="http://www.w3.org/2000/svg" viewBox="0 0 400 300"><circle cx="119.39" cy="166.85" r="73.69" fill="#e6e6e6" opacity="0.3"/><circle cx="279.6" cy="166.85" r="73.69" fill="#e6e6e6" opacity="0.3"/><path d="M327.28,147.27s3.54-44.17-19.18-47.91S282.56,160,302,160.94,327.28,147.27,327.28,147.27Z" fill="#f4a28c"/><path d="M302,160.94c19.46,1,25.26-13.67,25.26-13.67s3.54-44.17-19.18-47.91" opacity="0.1"/><path d="M71.86,158s8.32-39.14,29.25-39.14,32.07,61.52-18.85,68.22Z" fill="#f4a28c"/><path d="M71.86,158s8.32-39.14,29.25-39.14,32.07,61.52-18.85,68.22Z" opacity="0.1"/><rect x="90.18" y="47.65" width="80.11" height="142.37" fill="#e6e6e6"/><rect x="96.69" y="59.23" width="67.09" height="106.51" fill="#fff"/><rect x="110.23" y="134.69" width="38.82" height="16.1" fill="#24285b"/><path d="M114.39,130.74s8.91,5.35,5.48,13.29-13.84,12.76-14,23.18,0,22.82,0,22.82H90.18v-24.3Z" opacity="0.1"/><path d="M88.26,143.44s16.16-16.52,23.14-15.05c5.75,1.21,5.76,12.67-6.79,22.21a22.26,22.26,0,0,0-8.82,16.23c-.36,5.34-2.11,11.68-7.53,16.47-11.38,10.09-19.83,1.3-18.73-12.3S71.37,153.36,88.26,143.44Z" fill="#f4a28c"/><polygon points="94.55 181.13 88.47 265.19 38.65 255.63 63.7 171.78 94.55 181.13" fill="#e71619"/><polygon points="69.02 261.46 79.82 176.67 94.55 181.13 88.47 265.19 69.02 261.46" opacity="0.1"/><circle cx="112.67" cy="53.26" r="2.44" fill="#a8a8a8"/><rect x="119.87" y="52.42" width="25.79" height="2.22" rx="1.04" fill="#a8a8a8"/><circle cx="130.23" cy="99.97" r="21.94" fill="#ffd200"/><circle cx="128.34" cy="177.36" r="7.79" fill="#a8a8a8"/><text transform="translate(120.55 109.45)" font-size="29.11" fill="#fff" font-family="Panton-Black, Panton Black" font-weight="800">$</text><rect x="227.99" y="47.67" width="80.11" height="142.37" fill="#e6e6e6"/><rect x="234.51" y="59.24" width="67.09" height="106.51" fill="#fff"/><circle cx="250.48" cy="53.28" r="2.44" fill="#a8a8a8"/><rect x="257.69" y="52.44" width="25.79" height="2.22" rx="1.04" fill="#a8a8a8"/><path d="M302.41,117.9s-10.18,2.32-6.76,12.28-.35,23.64-2.17,26.55c-8.09,12.86-4.41,33.31-4.41,33.31h19S313.22,124.93,302.41,117.9Z" opacity="0.1"/><circle cx="268.05" cy="111.23" r="21.94" fill="#ffd200"/><circle cx="266.15" cy="177.38" r="7.79" fill="#a8a8a8"/><text transform="translate(258.36 120.71)" font-size="29.11" fill="#fff" font-family="Panton-Black, Panton Black" font-weight="800">$</text><path d="M322.11,137.46s-6.15-22.28-13-24.37c-5.62-1.72-11.17,8.31-4.81,22.73a22.22,22.22,0,0,1-.12,18.47c-2.27,4.84-3.8,11.25-1.38,18.06,5.09,14.33,19,12.74,24.65.3S332.1,154.31,322.11,137.46Z" fill="#f4a28c"/><polygon points="299.66 173.85 305.73 257.9 355.55 248.34 330.5 164.5 299.66 173.85" fill="#e71619"/><polygon points="325.18 254.17 314.38 169.38 299.66 173.85 305.73 257.9 325.18 254.17" opacity="0.1"/><circle cx="286.24" cy="90.41" r="11.64" fill="#24285b"/><polyline points="282.18 90.07 285.24 94.57 289.92 86.45" fill="none" stroke="#fff" stroke-linecap="round" stroke-linejoin="round" stroke-width="2"/><path d="M176.82,105.13s20.44-14.73,46.82.42" fill="none" stroke="#a8a8a8" stroke-linecap="round" stroke-linejoin="round" stroke-width="2" stroke-dasharray="1 5"/></svg>